<svg id="Layer_1" data-name="Layer 1" xmlns="http://www.w3.org/2000/svg" viewBox="0 0 208.86 246.45">
  <defs>
    <style>
      .cls-1 {
        fill: #fff;
      }

      .cls-2 {
        fill: #ffcc2f;
      }

      .cls-3 {
        fill: #fedb55;
      }
    </style>
  </defs>
  <title>angry</title>
  <path class="cls-1" d="M208.86,104.43A104.43,104.43,0,1,0,81.13,206.25L82.9,209l24.61,37.5,24.6-37.5,3.08-4.7A104.47,104.47,0,0,0,208.86,104.43Z"/>
  <g>
    <circle class="cls-2" cx="104.43" cy="104.3" r="34.78"/>
    <path class="cls-3" d="M104.22,60h7a3.87,3.87,0,0,0,3.6-5.3c-2.57-6.49-7.14-16.61-10.62-16.61s-8,10.12-10.62,16.61A3.87,3.87,0,0,0,97.2,60Z"/>
    <path class="cls-3" d="M73,73.12l5-5a3.86,3.86,0,0,0-1.2-6.29c-6.4-2.77-16.79-6.7-19.25-4.24s1.47,12.85,4.24,19.25A3.87,3.87,0,0,0,68,78.09Z"/>
    <path class="cls-3" d="M60.13,104.51v-7a3.88,3.88,0,0,0-5.31-3.61c-6.48,2.57-16.6,7.14-16.6,10.62s10.12,8,16.6,10.62a3.88,3.88,0,0,0,5.31-3.6Z"/>
    <path class="cls-3" d="M73.25,135.78l-5-5A3.88,3.88,0,0,0,62,132c-2.77,6.4-6.69,16.79-4.23,19.25S70.61,149.81,77,147a3.88,3.88,0,0,0,1.2-6.3Z"/>
    <path class="cls-3" d="M104.64,148.61h-7a3.87,3.87,0,0,0-3.6,5.3c2.57,6.48,7.14,16.61,10.62,16.61s8-10.13,10.62-16.61a3.88,3.88,0,0,0-3.61-5.3Z"/>
    <path class="cls-3" d="M135.91,135.48l-5,5a3.88,3.88,0,0,0,1.21,6.3c6.4,2.77,16.79,6.7,19.25,4.23s-1.47-12.84-4.24-19.25a3.87,3.87,0,0,0-6.29-1.2Z"/>
    <path class="cls-3" d="M148.73,104.09v7a3.88,3.88,0,0,0,5.31,3.6c6.48-2.57,16.6-7.14,16.6-10.62s-10.12-8-16.6-10.61a3.88,3.88,0,0,0-5.31,3.6Z"/>
    <path class="cls-3" d="M135.61,72.83l5,5a3.88,3.88,0,0,0,6.3-1.2c2.77-6.41,6.69-16.79,4.23-19.25s-12.85,1.46-19.25,4.23a3.88,3.88,0,0,0-1.2,6.3Z"/>
  </g>
</svg>
