<svg id="Layer_1" data-name="Layer 1" xmlns="http://www.w3.org/2000/svg" viewBox="0 0 241.78 241.78">
  <defs>
    <style>
      .cls-1 {
        fill: #fff;
      }

      .cls-2 {
        fill: #fedb55;
      }
    </style>
  </defs>
  <title>Artboard 2 copy</title>
  <g>
    <circle class="cls-1" cx="120.89" cy="120.89" r="63.5"/>
    <path class="cls-2" d="M120.51,40h12.8a7.07,7.07,0,0,0,6.58-9.68C135.2,18.48,126.86,0,120.51,0s-14.7,18.48-19.39,30.32A7.07,7.07,0,0,0,107.7,40Z"/>
    <path class="cls-2" d="M63.42,64l9.06-9.05a7.08,7.08,0,0,0-2.2-11.5c-11.69-5.06-30.65-12.23-35.14-7.73s2.67,23.46,7.72,35.14A7.08,7.08,0,0,0,54.36,73Z"/>
    <path class="cls-2" d="M40,121.27V108.46a7.07,7.07,0,0,0-9.68-6.58C18.48,106.58,0,114.92,0,121.27S18.48,136,30.32,140.66A7.07,7.07,0,0,0,40,134.08Z"/>
    <path class="cls-2" d="M64,178.36l-9.05-9.06a7.08,7.08,0,0,0-11.5,2.19c-5.06,11.69-12.23,30.66-7.73,35.15s23.46-2.67,35.14-7.73a7.08,7.08,0,0,0,2.2-11.5Z"/>
    <path class="cls-2" d="M121.27,201.78H108.46a7.07,7.07,0,0,0-6.58,9.68c4.7,11.84,13,30.32,19.39,30.32s14.7-18.48,19.39-30.32a7.07,7.07,0,0,0-6.58-9.68Z"/>
    <path class="cls-2" d="M178.36,177.82l-9.06,9.05a7.08,7.08,0,0,0,2.19,11.5c11.69,5,30.66,12.22,35.15,7.73S204,182.64,198.91,171a7.08,7.08,0,0,0-11.5-2.19Z"/>
    <path class="cls-2" d="M201.78,120.51v12.8a7.07,7.07,0,0,0,9.68,6.58c11.84-4.69,30.32-13,30.32-19.38s-18.48-14.7-30.32-19.39a7.07,7.07,0,0,0-9.68,6.58Z"/>
    <path class="cls-2" d="M177.82,63.42l9.05,9.06a7.08,7.08,0,0,0,11.5-2.2c5-11.69,12.22-30.65,7.73-35.14S182.64,37.81,171,42.86a7.08,7.08,0,0,0-2.19,11.5Z"/>
  </g>
</svg>
